# xmcd CD database file
#
# Track frame offsets:
#	150
#	7266
#	24244
#	28540
#	42544
#	46620
#	62732
#	68315
#	85156
#	91528
#	104551
#	109916
#	123960
#	129006
#	143406
#	150110
#	167945
#	175373
#	189942
#	194812
#
# Disc length: 2810 seconds
#
# Revision: 0
# Processed by: cddbd v1.5.1PL0 Copyright (c) Steve Scherf et al.
# Submitted via: NeoAudio 9.9.9
#
DISCID=f50af814
DTITLE=Dave Sheriff - UK Line dance top 10 vol 2
DYEAR=1900
DGENRE=Country
TTITLE0=practice speed
TTITLE1=wind ya body
TTITLE2=practice speed
TTITLE3=delores charleston
TTITLE4=pratice speed
TTITLE5=wild child
TTITLE6=pratice speed
TTITLE7=bowlegged dream
TTITLE8=pratice speed
TTITLE9=m&m shuffle
TTITLE10=pratice speed
TTITLE11=is this love
TTITLE12=pratice speed
TTITLE13=bareback boogie
TTITLE14=pratice speed
TTITLE15=whispers
TTITLE16=pratice speed
TTITLE17=totally crazy
TTITLE18=pratice speed
TTITLE19=you're cheating again
EXTD=
EXTT0=
EXTT1=
EXTT2=
EXTT3=
EXTT4=
EXTT5=
EXTT6=
EXTT7=
EXTT8=
EXTT9=
EXTT10=
EXTT11=
EXTT12=
EXTT13=
EXTT14=
EXTT15=
EXTT16=
EXTT17=
EXTT18=
EXTT19=
PLAYORDER=
